<?xml version="1.0" encoding="UTF-8"?>
<svg id="Camada_2" data-name="Camada 2" xmlns="http://www.w3.org/2000/svg" viewBox="0 0 22.48 24.6">
  <defs>
    <style>
      .cls-1 {
        fill: #400f1b;
      }
    </style>
  </defs>
  <g id="Layer_1" data-name="Layer 1">
    <path class="cls-1" d="M8.74,10.78V.55c0-.42.45-.69.82-.49l12.63,6.89c.18.1.29.28.29.49v14.3c0,.22-.18.4-.4.39l-1.91-.03c-.11,0-.2.08-.2.19v1.91c-.01.22-.19.39-.41.39H.55c-.31,0-.55-.25-.55-.55V7.97c0-.4.41-.67.78-.51l7.76,3.45c.1.04.21-.03.21-.13M11.24,3.83v7.71c0,.3-.32.5-.59.37l-1.69-.8c-.1-.05-.21.03-.21.14l.05,1.87c0,.3-.3.51-.58.39l-5.72-2.54v11.14h17.3c.11,0,.19-.09.19-.19v-13.31L11.24,3.83Z"/>
  </g>
</svg>