<?xml version="1.0" encoding="UTF-8"?>
<svg id="Camada_2" data-name="Camada 2" xmlns="http://www.w3.org/2000/svg" viewBox="0 0 15.89 21.34">
  <defs>
    <style>
      .cls-1 {
        fill: #400f1b;
      }
    </style>
  </defs>
  <g id="Layer_1" data-name="Layer 1">
    <g>
      <path class="cls-1" d="M8.16,4.66l.81,1.64c.04.08.11.13.19.14l1.81.26c.21.03.29.29.14.43l-1.31,1.28c-.06.06-.09.14-.07.23l.31,1.8c.04.21-.18.37-.37.27l-1.62-.85c-.07-.04-.16-.04-.24,0l-1.62.85c-.19.1-.41-.06-.37-.27l.31-1.8c.01-.08-.01-.17-.07-.23l-1.31-1.28c-.15-.15-.07-.4.14-.43l1.81-.26c.08-.01.15-.06.19-.14l.81-1.64c.09-.19.36-.19.46,0"/>
      <path class="cls-1" d="M15.89,7.69C15.75,3.51,12.34.12,8.17,0,3.5-.13-.34,3.85.02,8.57c.18,2.37,1.41,4.45,3.22,5.78l.05.09v6.79l.11.11h1.7l.08-.03,2.68-2.68h.16l2.68,2.68.08.03h1.7l.11-.11v-6.8l.05-.09c2.03-1.5,3.33-3.93,3.24-6.65M2.21,9.19c-.86-4.2,2.78-7.84,6.98-6.98,2.25.46,4.03,2.24,4.49,4.49.86,4.2-2.77,7.84-6.98,6.98-2.25-.46-4.03-2.24-4.49-4.49M10.55,18.48l-1.23-1.23h-.16l-1.13,1.13h-.16l-1.13-1.13h-.16l-1.23,1.23c-.07.07-.19.02-.19-.08v-2.86c0-.08.08-.13.15-.11.64.23,1.32.37,2.02.43,1.15.09,2.25-.07,3.26-.43.07-.03.15.03.15.11v2.87c0,.1-.12.15-.19.08"/>
    </g>
  </g>
</svg>