<?xml version="1.0" encoding="UTF-8"?>
<svg id="Camada_2" data-name="Camada 2" xmlns="http://www.w3.org/2000/svg" viewBox="0 0 21.48 21.48">
  <defs>
    <style>
      .cls-1 {
        fill: #400f1b;
      }
    </style>
  </defs>
  <g id="Layer_1" data-name="Layer 1">
    <path class="cls-1" d="M11.58,21.45c5.26-.41,9.46-4.6,9.87-9.87C21.96,5.03,16.45-.47,9.9.03,4.64.44.44,4.64.03,9.9c-.51,6.55,4.99,12.06,11.55,11.55M10.65,18.91c-1.14-2.1-1.85-4.47-2.02-6.99l.1-.11h4.02l.1.11c-.17,2.52-.88,4.88-2.02,6.99-.04.07-.14.07-.18,0M13.42,2.57c3.07,1.01,5.38,3.7,5.83,6.98l-.1.11h-1.57c-.15,0-.3.06-.42.16l-1.97,1.81c-.07.06-.02.17.07.17h3.89l.1.11c-.45,3.28-2.76,5.97-5.83,6.98-.08.03-.16-.06-.12-.14.98-2.14,1.58-4.48,1.71-6.95h0v-2.15h0c-.14-2.48-.74-4.82-1.71-6.96-.04-.08.04-.16.12-.14M12.75,9.67h-4.02l-.1-.11c.17-2.52.88-4.88,2.02-6.98.04-.07.14-.07.18,0,1.14,2.1,1.85,4.47,2.02,6.98l-.1.11ZM8.04,2.58c.1-.03.19.06.15.16-.22.53-.72,1.8-.76,1.89-.52,1.57-.85,3.22-.95,4.94l-.1.09H1.51c-.15,0,.05.06-.06.16l.06,1.57c-.74.28-.22.71.51.42h4.35l.1.09c.15,2.44.74,4.75,1.71,6.86.04.08-.04.16-.12.14-3.11-1.02-5.43-3.75-5.85-7.09h0v-2.15h0c.42-3.33,2.73-6.07,5.82-7.09"/>
  </g>
</svg>